<?xml version="1.0" encoding="UTF-8" standalone="no"?>
<svg
   xmlns:dc="http://purl.org/dc/elements/1.1/"
   xmlns:cc="http://creativecommons.org/ns#"
   xmlns:rdf="http://www.w3.org/1999/02/22-rdf-syntax-ns#"
   xmlns:svg="http://www.w3.org/2000/svg"
   xmlns="http://www.w3.org/2000/svg"
   xmlns:sodipodi="http://sodipodi.sourceforge.net/DTD/sodipodi-0.dtd"
   xmlns:inkscape="http://www.inkscape.org/namespaces/inkscape"
   sodipodi:docname="split-intro-exs.svg"
   inkscape:version="1.0 (4035a4fb49, 2020-05-01)"
   id="svg8"
   version="1.1"
   viewBox="0 0 210.6224 110.08093"
   height="416.05389"
   width="796.05316">
  <defs
     id="defs2">
    <rect
       id="rect923"
       height="25.123337"
       width="43.297665"
       y="104.76965"
       x="115.99497" />
    <rect
       id="rect917"
       height="20.847023"
       width="30.468725"
       y="97.28611"
       x="49.177593" />
    <rect
       id="rect911"
       height="25.123337"
       width="41.159508"
       y="179.60512"
       x="104.23512" />
    <rect
       id="rect905"
       height="52.919365"
       width="105.83873"
       y="140.04922"
       x="48.643055" />
    <rect
       id="rect870"
       height="37.417732"
       width="65.213768"
       y="44.366741"
       x="-24.054256" />
    <rect
       id="rect847"
       height="18.898809"
       width="44.979168"
       y="55.184525"
       x="72.193451" />
    <rect
       id="rect841"
       height="33.261906"
       width="76.351189"
       y="16.252975"
       x="140.60715" />
    <rect
       id="rect835"
       height="14.363095"
       width="44.601192"
       y="10.96131"
       x="26.080357" />
    <rect
       x="-24.054256"
       y="44.366741"
       width="65.213768"
       height="37.417732"
       id="rect870-8" />
    <rect
       x="-24.054256"
       y="44.366741"
       width="65.213768"
       height="37.417732"
       id="rect883" />
  </defs>
  <sodipodi:namedview
     inkscape:window-maximized="0"
     inkscape:window-y="0"
     inkscape:window-x="160"
     inkscape:window-height="1030"
     inkscape:window-width="1541"
     units="px"
     fit-margin-bottom="10"
     fit-margin-right="10"
     fit-margin-left="10"
     fit-margin-top="10"
     showgrid="false"
     inkscape:document-rotation="0"
     inkscape:current-layer="layer1"
     inkscape:document-units="mm"
     inkscape:cy="427.31785"
     inkscape:cx="518.47773"
     inkscape:zoom="0.7"
     inkscape:pageshadow="2"
     inkscape:pageopacity="0.0"
     borderopacity="1.0"
     bordercolor="#666666"
     pagecolor="#ffffff"
     id="base" />
  <metadata
     id="metadata5">
    <rdf:RDF>
      <cc:Work
         rdf:about="">
        <dc:format>image/svg+xml</dc:format>
        <dc:type
           rdf:resource="http://purl.org/dc/dcmitype/StillImage" />
        <dc:title></dc:title>
      </cc:Work>
    </rdf:RDF>
  </metadata>
  <g
     transform="translate(1.9900475,-9.2600404)"
     id="layer1"
     inkscape:groupmode="layer"
     inkscape:label="Layer 1">
    <g
       style="font-style:normal;font-weight:normal;font-size:10.5833px;line-height:1.25;font-family:sans-serif;white-space:pre;shape-inside:url(#rect835);fill:#000000;fill-opacity:1;stroke:none"
       id="text833"
       transform="translate(-9.4494048,-0.37797619)"
       aria-label="to write">
      <path
         id="path970"
         d="m 28.017938,12.89363 v 1.643305 h 1.958531 v 0.738971 h -1.958531 v 3.141917 q 0,0.707965 0.191202,0.909502 0.19637,0.201538 0.790647,0.201538 h 0.976682 v 0.795814 h -0.976682 q -1.100704,0 -1.519282,-0.408242 -0.418578,-0.41341 -0.418578,-1.498612 v -3.141917 h -0.697629 v -0.738971 h 0.697629 V 12.89363 Z" />
      <path
         id="path972"
         d="m 33.474952,15.203559 q -0.764809,0 -1.209225,0.599445 -0.444416,0.594277 -0.444416,1.63297 0,1.038693 0.439249,1.638138 0.444416,0.594277 1.214392,0.594277 0.759641,0 1.204057,-0.599445 0.444416,-0.599445 0.444416,-1.63297 0,-1.028358 -0.444416,-1.627803 -0.444416,-0.604612 -1.204057,-0.604612 z m 0,-0.80615 q 1.24023,0 1.948195,0.80615 0.707965,0.80615 0.707965,2.232415 0,1.421097 -0.707965,2.232415 -0.707965,0.806149 -1.948195,0.806149 -1.245398,0 -1.953363,-0.806149 -0.702797,-0.811318 -0.702797,-2.232415 0,-1.426265 0.702797,-2.232415 0.707965,-0.80615 1.953363,-0.80615 z" />
      <path
         id="path974"
         d="m 40.518427,14.536935 h 0.950843 l 1.188554,4.516506 1.183387,-4.516506 h 1.121375 l 1.188554,4.516506 1.183386,-4.516506 h 0.950844 l -1.514115,5.787742 H 45.64988 l -1.245398,-4.743881 -1.250566,4.743881 h -1.121375 z" />
      <path
         id="path976"
         d="m 53.086095,15.425767 q -0.160197,-0.09302 -0.351399,-0.134358 -0.186035,-0.04651 -0.41341,-0.04651 -0.80615,0 -1.240231,0.527098 -0.428913,0.52193 -0.428913,1.503779 v 3.0489 h -0.95601 v -5.787742 h 0.95601 v 0.899167 q 0.299723,-0.527098 0.780312,-0.780311 0.480589,-0.258382 1.167884,-0.258382 0.09819,0 0.21704,0.0155 0.118855,0.01033 0.263549,0.03617 z" />
      <path
         id="path978"
         d="m 54.093782,14.536935 h 0.950843 v 5.787742 h -0.950843 z m 0,-2.253085 h 0.950843 v 1.204057 h -0.950843 z" />
      <path
         id="path980"
         d="m 57.969503,12.89363 v 1.643305 h 1.958531 v 0.738971 h -1.958531 v 3.141917 q 0,0.707965 0.191202,0.909502 0.19637,0.201538 0.790647,0.201538 h 0.976682 v 0.795814 h -0.976682 q -1.100704,0 -1.519282,-0.408242 -0.418578,-0.41341 -0.418578,-1.498612 v -3.141917 h -0.69763 v -0.738971 h 0.69763 V 12.89363 Z" />
      <path
         id="path982"
         d="m 66.134351,17.193095 v 0.465087 h -4.371812 q 0.06201,0.981849 0.589109,1.498612 0.532266,0.511595 1.477942,0.511595 0.547768,0 1.059363,-0.134359 0.516763,-0.134358 1.02319,-0.403075 v 0.899167 q -0.511595,0.217041 -1.049028,0.330729 -0.537433,0.113687 -1.090369,0.113687 -1.384924,0 -2.196242,-0.806149 -0.806149,-0.80615 -0.806149,-2.180739 0,-1.421097 0.764808,-2.253085 0.769977,-0.837156 2.072219,-0.837156 1.167883,0 1.844842,0.754474 0.682127,0.749306 0.682127,2.041212 z m -0.950843,-0.279051 q -0.01033,-0.780312 -0.439248,-1.245399 -0.423746,-0.465086 -1.126543,-0.465086 -0.795815,0 -1.276404,0.449584 -0.475421,0.449583 -0.547768,1.266068 z" />
    </g>
    <g
       style="font-style:normal;font-weight:normal;font-size:10.5833px;line-height:1.25;font-family:sans-serif;white-space:pre;shape-inside:url(#rect841);fill:#000000;fill-opacity:1;stroke:none"
       id="text839"
       transform="translate(5.2916667,-5.2916667)"
       aria-label="to become">
      <path
         id="path985"
         d="m 142.54528,18.186599 v 1.643305 h 1.95853 v 0.738971 h -1.95853 v 3.141917 q 0,0.707965 0.1912,0.909502 0.19637,0.201537 0.79065,0.201537 h 0.97668 v 0.795815 h -0.97668 q -1.1007,0 -1.51928,-0.408243 -0.41858,-0.41341 -0.41858,-1.498611 v -3.141917 h -0.69763 v -0.738971 h 0.69763 v -1.643305 z" />
      <path
         id="path987"
         d="m 148.0023,20.496528 q -0.76481,0 -1.20923,0.599445 -0.44441,0.594277 -0.44441,1.63297 0,1.038693 0.43924,1.638137 0.44442,0.594277 1.2144,0.594277 0.75964,0 1.20405,-0.599444 0.44442,-0.599445 0.44442,-1.63297 0,-1.028358 -0.44442,-1.627803 -0.44441,-0.604612 -1.20405,-0.604612 z m 0,-0.80615 q 1.24023,0 1.94819,0.80615 0.70797,0.80615 0.70797,2.232415 0,1.421097 -0.70797,2.232414 -0.70796,0.80615 -1.94819,0.80615 -1.2454,0 -1.95337,-0.80615 -0.70279,-0.811317 -0.70279,-2.232414 0,-1.426265 0.70279,-2.232415 0.70797,-0.80615 1.95337,-0.80615 z" />
      <path
         id="path989"
         d="m 159.75348,22.728943 q 0,-1.049029 -0.43408,-1.643306 -0.42892,-0.599444 -1.18339,-0.599444 -0.75447,0 -1.18855,0.599444 -0.42892,0.594277 -0.42892,1.643306 0,1.049028 0.42892,1.648473 0.43408,0.594277 1.18855,0.594277 0.75447,0 1.18339,-0.594277 0.43408,-0.599445 0.43408,-1.648473 z m -3.23494,-2.020542 q 0.29973,-0.516763 0.75448,-0.764809 0.45992,-0.253214 1.09553,-0.253214 1.0542,0 1.71049,0.837156 0.66146,0.837155 0.66146,2.201409 0,1.364253 -0.66146,2.201409 -0.65629,0.837155 -1.71049,0.837155 -0.63561,0 -1.09553,-0.248046 -0.45475,-0.253214 -0.75448,-0.769976 v 0.868161 h -0.95601 v -8.040827 h 0.95601 z" />
      <path
         id="path991"
         d="m 167.26721,22.486064 v 0.465087 h -4.37181 q 0.062,0.981849 0.5891,1.498611 0.53227,0.511595 1.47795,0.511595 0.54776,0 1.05936,-0.134358 0.51676,-0.134358 1.02319,-0.403075 v 0.899167 q -0.5116,0.217041 -1.04903,0.330728 -0.53743,0.113688 -1.09037,0.113688 -1.38492,0 -2.19624,-0.80615 -0.80615,-0.806149 -0.80615,-2.180738 0,-1.421097 0.76481,-2.253085 0.76998,-0.837156 2.07222,-0.837156 1.16788,0 1.84484,0.754474 0.68213,0.749305 0.68213,2.041212 z m -0.95085,-0.279052 q -0.0103,-0.780311 -0.43924,-1.245398 -0.42375,-0.465086 -1.12655,-0.465086 -0.79581,0 -1.2764,0.449583 -0.47542,0.449584 -0.54777,1.266069 z" />
      <path
         id="path993"
         d="m 172.99294,20.052112 v 0.888832 q -0.40308,-0.222208 -0.81132,-0.330728 -0.40307,-0.113688 -0.81648,-0.113688 -0.92501,0 -1.4366,0.589109 -0.5116,0.583942 -0.5116,1.643306 0,1.059363 0.5116,1.648473 0.51159,0.583941 1.4366,0.583941 0.41341,0 0.81648,-0.10852 0.40824,-0.113688 0.81132,-0.335896 v 0.878497 q -0.39791,0.186035 -0.82682,0.279052 -0.42375,0.09302 -0.90434,0.09302 -1.30741,0 -2.07738,-0.821653 -0.76998,-0.821652 -0.76998,-2.216911 0,-1.41593 0.77514,-2.227248 0.78032,-0.811317 2.13423,-0.811317 0.43925,0 0.85783,0.09302 0.41858,0.08785 0.81132,0.268717 z" />
      <path
         id="path995"
         d="m 176.89966,20.496528 q -0.76481,0 -1.20922,0.599445 -0.44442,0.594277 -0.44442,1.63297 0,1.038693 0.43925,1.638137 0.44442,0.594277 1.21439,0.594277 0.75964,0 1.20406,-0.599444 0.44442,-0.599445 0.44442,-1.63297 0,-1.028358 -0.44442,-1.627803 -0.44442,-0.604612 -1.20406,-0.604612 z m 0,-0.80615 q 1.24023,0 1.9482,0.80615 0.70796,0.80615 0.70796,2.232415 0,1.421097 -0.70796,2.232414 -0.70797,0.80615 -1.9482,0.80615 -1.24539,0 -1.95336,-0.80615 -0.7028,-0.811317 -0.7028,-2.232414 0,-1.426265 0.7028,-2.232415 0.70797,-0.80615 1.95336,-0.80615 z" />
      <path
         id="path997"
         d="m 185.63296,20.940944 q 0.35656,-0.640786 0.85265,-0.945676 0.4961,-0.30489 1.16789,-0.30489 0.90433,0 1.39526,0.635618 0.49092,0.630451 0.49092,1.798334 v 3.493316 h -0.95601 v -3.46231 q 0,-0.831988 -0.29455,-1.235063 -0.29456,-0.403075 -0.89917,-0.403075 -0.73897,0 -1.16789,0.490925 -0.42891,0.490924 -0.42891,1.338415 v 3.271108 h -0.95601 v -3.46231 q 0,-0.837156 -0.29455,-1.235063 -0.29456,-0.403075 -0.90951,-0.403075 -0.72863,0 -1.15754,0.496093 -0.42892,0.490924 -0.42892,1.333247 v 3.271108 h -0.95601 v -5.787742 h 0.95601 v 0.899167 q 0.32556,-0.532266 0.78031,-0.785479 0.45476,-0.253214 1.08004,-0.253214 0.63045,0 1.0697,0.320393 0.44441,0.320393 0.65629,0.930173 z" />
      <path
         id="path999"
         d="m 196.39195,22.486064 v 0.465087 h -4.37181 q 0.062,0.981849 0.58911,1.498611 0.53227,0.511595 1.47794,0.511595 0.54777,0 1.05937,-0.134358 0.51676,-0.134358 1.02319,-0.403075 v 0.899167 q -0.5116,0.217041 -1.04903,0.330728 -0.53744,0.113688 -1.09037,0.113688 -1.38493,0 -2.19624,-0.80615 -0.80615,-0.806149 -0.80615,-2.180738 0,-1.421097 0.76481,-2.253085 0.76997,-0.837156 2.07221,-0.837156 1.16789,0 1.84485,0.754474 0.68212,0.749305 0.68212,2.041212 z m -0.95084,-0.279052 q -0.0103,-0.780311 -0.43925,-1.245398 -0.42374,-0.465086 -1.12654,-0.465086 -0.79581,0 -1.2764,0.449583 -0.47543,0.449584 -0.54777,1.266069 z" />
    </g>
    <g
       style="font-style:normal;font-weight:normal;font-size:10.5833px;line-height:1.25;font-family:sans-serif;white-space:pre;shape-inside:url(#rect847);fill:#000000;fill-opacity:1;stroke:none"
       id="text845"
       transform="translate(19.914163,17.261813)"
       aria-label="to do">
      <path
         id="path1002"
         d="m 74.131219,57.116286 v 1.643305 h 1.958531 v 0.738971 h -1.958531 v 3.141917 q 0,0.707965 0.191203,0.909503 0.196369,0.201537 0.790647,0.201537 h 0.976681 v 0.795814 h -0.976681 q -1.100705,0 -1.519283,-0.408242 -0.418578,-0.41341 -0.418578,-1.498612 v -3.141917 h -0.697629 v -0.738971 h 0.697629 v -1.643305 z" />
      <path
         id="path1004"
         d="m 79.588233,59.426215 q -0.764809,0 -1.209224,0.599445 -0.444416,0.594277 -0.444416,1.63297 0,1.038693 0.439248,1.638138 0.444416,0.594277 1.214392,0.594277 0.759641,0 1.204057,-0.599445 0.444416,-0.599445 0.444416,-1.63297 0,-1.028358 -0.444416,-1.627802 -0.444416,-0.604613 -1.204057,-0.604613 z m 0,-0.806149 q 1.240231,0 1.948195,0.806149 0.707965,0.80615 0.707965,2.232415 0,1.421097 -0.707965,2.232415 -0.707964,0.80615 -1.948195,0.80615 -1.245398,0 -1.953363,-0.80615 -0.702797,-0.811318 -0.702797,-2.232415 0,-1.426265 0.702797,-2.232415 0.707965,-0.806149 1.953363,-0.806149 z" />
      <path
         id="path1006"
         d="m 90.993185,59.638088 v -3.131582 h 0.950843 v 8.040827 h -0.950843 v -0.868161 q -0.299722,0.516763 -0.759641,0.769977 -0.454751,0.248046 -1.095537,0.248046 -1.049028,0 -1.710484,-0.837156 -0.656289,-0.837155 -0.656289,-2.201409 0,-1.364253 0.656289,-2.201409 0.661456,-0.837155 1.710484,-0.837155 0.640786,0 1.095537,0.253213 0.459919,0.248046 0.759641,0.764809 z m -3.240102,2.020542 q 0,1.049028 0.428913,1.648473 0.434081,0.594277 1.188554,0.594277 0.754474,0 1.188554,-0.594277 0.434081,-0.599445 0.434081,-1.648473 0,-1.049028 -0.434081,-1.643305 -0.43408,-0.599445 -1.188554,-0.599445 -0.754473,0 -1.188554,0.599445 -0.428913,0.594277 -0.428913,1.643305 z" />
      <path
         id="path1008"
         d="m 96.145309,59.426215 q -0.764809,0 -1.209225,0.599445 -0.444416,0.594277 -0.444416,1.63297 0,1.038693 0.439248,1.638138 0.444416,0.594277 1.214393,0.594277 0.759641,0 1.204057,-0.599445 0.444416,-0.599445 0.444416,-1.63297 0,-1.028358 -0.444416,-1.627802 -0.444416,-0.604613 -1.204057,-0.604613 z m 0,-0.806149 q 1.24023,0 1.948195,0.806149 0.707965,0.80615 0.707965,2.232415 0,1.421097 -0.707965,2.232415 -0.707965,0.80615 -1.948195,0.80615 -1.245398,0 -1.953363,-0.80615 -0.702797,-0.811318 -0.702797,-2.232415 0,-1.426265 0.702797,-2.232415 0.707965,-0.806149 1.953363,-0.806149 z" />
    </g>
    <g
       style="font-style:normal;font-weight:normal;font-size:13.4056px;line-height:1.25;font-family:sans-serif;white-space:pre;shape-inside:url(#rect870);fill:#000000;fill-opacity:1;stroke:none"
       id="text868"
       transform="translate(23.767993,-2.6347068)"
       aria-label="لیکل">
      <path
         id="path1011"
         style="font-size:13.4056px"
         d="m 0.39351318,53.799545 q 0,1.165136 -0.56947616,1.826252 -0.52365623,0.602204 -1.53169452,0.602204 h -0.8509413 v -1.204409 h 0.4909277 q 0.6480246,0 0.9360355,-0.288011 0.32073944,-0.32074 0.32073944,-1.014584 v -7.67811 h 1.20440934 z" />
      <path
         id="path1013"
         style="font-size:13.4056px"
         d="m -4.5288559,55.665071 q -0.5040191,0.56293 -1.4989659,0.56293 h -0.5891133 v -1.204409 h 0.2290996 q 0.6480246,0 0.9360355,-0.288011 0.3207395,-0.32074 0.3207395,-1.014584 v -1.420418 h 1.2044093 v 1.420418 q 0,0.693844 0.3207394,1.014584 0.288011,0.288011 0.9360356,0.288011 h 0.3600136 v 1.204409 h -0.7200273 q -0.9818554,0 -1.498966,-0.56293 z m 0.3272852,1.544786 h 0.9818554 v 0.981855 h -0.9818554 z m -1.6364258,0 h 0.9818555 v 0.981855 h -0.9818555 z" />
      <path
         id="path1015"
         style="font-size:13.4056px"
         d="m -11.866589,56.228001 h -2.160082 v -1.204409 h 2.029168 q 0.968764,0 1.263321,-0.680753 0.104731,-0.235646 0.104731,-0.471291 0,-0.451653 -0.353468,-0.88367 l -2.029168,-2.487367 q -0.327285,-0.399288 -0.327285,-0.92949 0,-0.229099 0.06546,-0.445107 0.202917,-0.772393 0.88367,-1.053859 l 4.8765486,-2.029168 v 1.217501 l -3.8946936,1.636426 q -0.464745,0.196371 -0.602204,0.458199 -0.03927,0.072 -0.03927,0.235645 0,0.209463 0.202916,0.451654 l 3.8161451,4.614721 q 0.1440055,0.170188 0.3927422,0.261828 0.2814652,0.104731 0.7003902,0.104731 h 0.5760218 v 1.204409 h -0.8640327 q -0.4254707,0 -0.8051215,-0.157097 -0.6742074,-0.281465 -0.8902156,-0.549839 l -0.6349332,-0.785484 q -0.1374597,0.301102 -0.2487367,0.477836 -0.6218416,1.014584 -2.0618966,1.014584 z" />
      <path
         id="path1017"
         style="font-size:13.4056px"
         d="m -17.234065,55.750165 q 0.510565,-0.824759 0.510565,-2.310633 v -7.396645 h 1.204409 v 7.67811 q 0,0.693844 0.320739,1.014584 0.288011,0.288011 0.936036,0.288011 h 0.490928 v 1.204409 h -0.850942 q -0.733118,0 -1.243683,-0.333831 -0.117823,0.301103 -0.294557,0.562931 -0.79203,1.158589 -2.500458,1.590606 -0.877125,0.222554 -1.433509,0.222554 -0.648025,0 -1.099678,-0.144006 -1.911346,-0.595659 -1.917891,-2.389182 -0.0065,-0.903307 0.412379,-1.505511 h 1.204409 q -0.425471,0.752756 -0.425471,1.505511 0,0.824759 1.086587,1.256775 0.261828,0.104732 0.739665,0.104732 0.523656,0 1.237137,-0.222554 1.138953,-0.346922 1.623335,-1.125861 z" />
    </g>
    <g
       style="font-style:normal;font-weight:normal;font-size:13.4056px;line-height:1.25;font-family:sans-serif;white-space:pre;shape-inside:url(#rect870-8);fill:#000000;fill-opacity:1;stroke:none"
       id="text868-3"
       transform="translate(66.416943,-3.2499754)"
       aria-label="ولیکل">
      <path
         id="path1020"
         style="font-size:13.4056px"
         d="m 4.8904128,53.269343 q -0.4123793,0 -0.7003902,0.373106 -0.1570969,0.216008 -0.1570969,0.451653 0,0.333831 0.3338309,0.641479 0.307648,0.288011 1.564423,0.288011 0,-1.204409 -0.5629305,-1.590606 -0.242191,-0.163643 -0.4778363,-0.163643 z m 2.2124476,1.754249 q 0,2.016076 -1.1258609,3.063389 -0.6218418,0.576022 -1.2305922,0.850941 -1.2567749,0.562931 -3.6459565,0.562931 v -1.20441 q 2.3499074,0 3.2270316,-0.497473 1.099678,-0.621842 1.5055116,-1.590606 -0.7723929,0 -1.0669496,-0.06546 -0.9818554,-0.216008 -1.2436835,-0.438562 -0.7593015,-0.641479 -0.7593015,-1.53824 0,-0.922944 0.5825675,-1.49242 0.6807531,-0.674208 1.5775144,-0.674208 0.5825676,0 1.0538582,0.333831 0.8509414,0.589113 1.0145839,1.525149 0.111277,0.667661 0.111277,1.165135 z" />
      <path
         id="path1022"
         style="font-size:13.4056px"
         d="m 0.39351318,53.799545 q 0,1.165136 -0.56947616,1.826252 -0.52365623,0.602204 -1.53169452,0.602204 h -0.8509413 v -1.204409 h 0.4909277 q 0.6480246,0 0.9360355,-0.288011 0.32073944,-0.32074 0.32073944,-1.014584 v -7.67811 h 1.20440934 z" />
      <path
         id="path1024"
         style="font-size:13.4056px"
         d="m -4.5288559,55.665071 q -0.5040191,0.56293 -1.4989659,0.56293 h -0.5891133 v -1.204409 h 0.2290996 q 0.6480246,0 0.9360355,-0.288011 0.3207395,-0.32074 0.3207395,-1.014584 v -1.420418 h 1.2044093 v 1.420418 q 0,0.693844 0.3207394,1.014584 0.288011,0.288011 0.9360356,0.288011 h 0.3600136 v 1.204409 h -0.7200273 q -0.9818554,0 -1.498966,-0.56293 z m 0.3272852,1.544786 h 0.9818554 v 0.981855 h -0.9818554 z m -1.6364258,0 h 0.9818555 v 0.981855 h -0.9818555 z" />
      <path
         id="path1026"
         style="font-size:13.4056px"
         d="m -11.866589,56.228001 h -2.160082 v -1.204409 h 2.029168 q 0.968764,0 1.263321,-0.680753 0.104731,-0.235646 0.104731,-0.471291 0,-0.451653 -0.353468,-0.88367 l -2.029168,-2.487367 q -0.327285,-0.399288 -0.327285,-0.92949 0,-0.229099 0.06546,-0.445107 0.202917,-0.772393 0.88367,-1.053859 l 4.8765486,-2.029168 v 1.217501 l -3.8946936,1.636426 q -0.464745,0.196371 -0.602204,0.458199 -0.03927,0.072 -0.03927,0.235645 0,0.209463 0.202916,0.451654 l 3.8161451,4.614721 q 0.1440055,0.170188 0.3927422,0.261828 0.2814652,0.104731 0.7003902,0.104731 h 0.5760218 v 1.204409 h -0.8640327 q -0.4254707,0 -0.8051215,-0.157097 -0.6742074,-0.281465 -0.8902156,-0.549839 l -0.6349332,-0.785484 q -0.1374597,0.301102 -0.2487367,0.477836 -0.6218416,1.014584 -2.0618966,1.014584 z" />
      <path
         id="path1028"
         style="font-size:13.4056px"
         d="m -17.234065,55.750165 q 0.510565,-0.824759 0.510565,-2.310633 v -7.396645 h 1.204409 v 7.67811 q 0,0.693844 0.320739,1.014584 0.288011,0.288011 0.936036,0.288011 h 0.490928 v 1.204409 h -0.850942 q -0.733118,0 -1.243683,-0.333831 -0.117823,0.301103 -0.294557,0.562931 -0.79203,1.158589 -2.500458,1.590606 -0.877125,0.222554 -1.433509,0.222554 -0.648025,0 -1.099678,-0.144006 -1.911346,-0.595659 -1.917891,-2.389182 -0.0065,-0.903307 0.412379,-1.505511 h 1.204409 q -0.425471,0.752756 -0.425471,1.505511 0,0.824759 1.086587,1.256775 0.261828,0.104732 0.739665,0.104732 0.523656,0 1.237137,-0.222554 1.138953,-0.346922 1.623335,-1.125861 z" />
    </g>
    <g
       style="font-style:normal;font-weight:normal;font-size:13.4056px;line-height:1.25;font-family:sans-serif;white-space:pre;shape-inside:url(#rect905);fill:#000000;fill-opacity:1;stroke:none"
       id="text903"
       transform="translate(86.81674,-98.931618)"
       aria-label="کېدل">
      <path
         id="path1031"
         style="font-size:13.4056px"
         d="m 71.513264,151.90964 h -2.160082 v -1.20441 h 2.029168 q 0.968764,0 1.263321,-0.68075 0.104731,-0.23565 0.104731,-0.47129 0,-0.45165 -0.353468,-0.88367 l -2.029168,-2.48737 q -0.327285,-0.39929 -0.327285,-0.92949 0,-0.2291 0.06546,-0.44511 0.202917,-0.77239 0.88367,-1.05385 l 4.876549,-2.02917 v 1.2175 l -3.894693,1.63642 q -0.464745,0.19638 -0.602205,0.4582 -0.03927,0.072 -0.03927,0.23565 0,0.20946 0.202917,0.45165 l 1.800068,2.16008 q 0.667662,0.80513 0.667662,1.61025 0,0.73966 -0.405834,1.40078 -0.621842,1.01458 -2.081534,1.01458 z" />
      <path
         id="path1033"
         style="font-size:13.4056px"
         d="m 67.382925,151.34671 q -0.504019,0.56293 -1.498966,0.56293 h -0.589113 v -1.20441 h 0.2291 q 0.648024,0 0.936035,-0.28801 0.32074,-0.32074 0.32074,-1.01458 v -1.42042 h 1.204409 v 1.42042 q 0,0.69384 0.32074,1.01458 0.28801,0.28801 0.936035,0.28801 h 0.360014 v 1.20441 h -0.720028 q -0.981855,0 -1.498966,-0.56293 z m -0.490927,2.85393 h 0.981855 v 0.98185 h -0.981855 z m 0,-1.63643 h 0.981855 v 0.98186 h -0.981855 z" />
      <path
         id="path1035"
         style="font-size:13.4056px"
         d="m 61.956537,148.14586 q -0.373105,-0.79857 -1.564423,-1.80007 h 1.485875 q 0.634933,0.51057 1.171681,1.40733 0.530202,0.87712 0.530202,1.64297 0,0.47784 0.543293,1.02113 0.288011,0.28801 0.936036,0.28801 h 0.490927 v 1.20441 h -0.850941 q -0.962218,0 -1.597152,-0.85094 -0.60875,0.83785 -1.96371,1.05386 -0.301103,0.0458 -0.595659,0.0458 -0.667662,0 -1.34187,-0.24874 v -1.20441 q 0.752756,0.27492 1.302595,0.27492 0.216009,0 0.438562,-0.0589 1.125861,-0.32074 1.354961,-1.05386 0.05237,-0.17673 0.05237,-0.45165 0,-0.44511 -0.392743,-1.26987 z" />
      <path
         id="path1037"
         style="font-size:13.4056px"
         d="m 55.463201,151.43181 q 0.510565,-0.82476 0.510565,-2.31064 v -7.39664 h 1.204409 v 7.39664 q 0,2.07499 -0.641479,3.01757 -0.79203,1.15859 -2.500458,1.59061 -0.877124,0.22255 -1.433509,0.22255 -0.621842,0 -1.099678,-0.144 -1.911345,-0.60221 -1.917891,-2.38919 -0.0065,-0.9033 0.412379,-1.50551 h 1.204409 q -0.42547,0.75276 -0.42547,1.50551 0,0.85095 1.086586,1.25678 0.261829,0.10473 0.739665,0.10473 0.523656,0 1.237138,-0.22255 1.138952,-0.34693 1.623334,-1.12586 z" />
    </g>
    <g
       style="font-style:normal;font-weight:normal;font-size:13.4056px;line-height:1.25;font-family:sans-serif;white-space:pre;shape-inside:url(#rect911);fill:#000000;fill-opacity:1;stroke:none"
       id="text909"
       transform="translate(74.954042,-138.48826)"
       aria-label="شول">
      <path
         id="path1040"
         style="font-size:13.4056px"
         d="m 123.42638,190.56298 q -0.28147,0.38619 -0.64803,0.6022 -0.49747,0.3011 -1.1455,0.3011 h -0.85094 v -1.20441 h 0.49093 q 0.64802,0 0.93604,-0.28801 0.52365,-0.52365 0.52365,-1.17822 v -1.25678 h 1.20441 v 1.02113 q 0,0.41893 0.28801,1.0735 0.28147,0.64802 0.96222,0.64802 0.71348,0 1.00149,-0.79858 0.24219,-0.6742 0.24219,-1.94407 h 1.20441 q 0,1.34187 0.12437,1.66915 0.41893,1.11277 1.13895,1.10623 0.92949,-0.0131 0.92949,-1.8328 v -1.92443 h 1.20441 v 2.23863 q 0,1.30259 -0.6022,2.04225 -0.49093,0.60221 -1.15859,0.75931 -0.24219,0.0589 -0.47129,0.0589 -0.41238,0 -0.77239,-0.16364 -0.89677,-0.39929 -1.01459,-1.26333 -0.31419,1.02113 -0.94258,1.23714 -0.44511,0.1571 -0.87058,0.1571 -0.64148,0 -1.11277,-0.32074 -0.39274,-0.26183 -0.66111,-0.73966 z m 2.55937,-6.95154 h 0.98185 v 0.98185 h -0.98185 z m 0.81821,1.63642 h 0.98185 v 0.98186 h -0.98185 z m -1.63643,0 h 0.98186 v 0.98186 h -0.98186 z" />
      <path
         id="path1042"
         style="font-size:13.4056px"
         d="m 118.24873,190.26187 q 0,-0.49747 -0.10474,-0.87058 -0.15709,-0.52365 -0.45819,-0.72002 -0.39275,-0.26838 -0.78549,-0.0982 -0.43856,0.18983 -0.52366,0.55639 -0.11127,0.49092 0.30765,0.84439 0.30765,0.26183 1.56443,0.28801 z m 1.17168,0 h 1.61024 v 1.20441 h -1.26987 l -0.4582,-0.007 q -0.16364,1.02113 -1.00803,1.86552 -0.5433,0.5433 -1.2306,0.85094 -1.25677,0.56293 -3.64595,0.56293 v -1.20441 q 2.363,0 3.22703,-0.49747 1.09968,-0.62184 1.50551,-1.5906 -0.77239,-0.0196 -1.06695,-0.0655 -0.90985,-0.1571 -1.24368,-0.43856 -0.69385,-0.58257 -0.7593,-1.46624 -0.0131,-0.20292 0.0524,-0.57602 0.17673,-1.01459 1.32878,-1.50551 0.3862,-0.16365 0.81167,-0.1571 0.56947,0.0131 1.02113,0.33383 0.87057,0.6022 1.01458,1.52515 0.0851,0.54329 0.11128,1.16513 z" />
      <path
         id="path1044"
         style="font-size:13.4056px"
         d="m 111.055,190.98845 q 0.51056,-0.82476 0.51056,-2.31064 v -7.39664 h 1.20441 v 7.39664 q 0,2.07499 -0.64148,3.01757 -0.79203,1.15859 -2.50046,1.59061 -0.87712,0.22255 -1.43351,0.22255 -0.62184,0 -1.09967,-0.144 -1.91135,-0.60221 -1.91789,-2.38919 -0.007,-0.9033 0.41238,-1.50551 h 1.2044 q -0.42547,0.75276 -0.42547,1.50551 0,0.85095 1.08659,1.25678 0.26183,0.10473 0.73966,0.10473 0.52366,0 1.23714,-0.22255 1.13895,-0.34693 1.62334,-1.12586 z" />
    </g>
    <g
       style="font-style:normal;font-weight:normal;font-size:13.4056px;line-height:1.25;font-family:sans-serif;white-space:pre;shape-inside:url(#rect917);fill:#000000;fill-opacity:1;stroke:none"
       id="text915"
       transform="translate(18.174328,4.2763124)"
       aria-label="کول">
      <path
         id="path1047"
         style="font-size:13.4056px"
         d="m 67.885354,109.14597 h -2.160082 v -1.20441 h 2.029168 q 0.968764,0 1.26332,-0.68075 0.104732,-0.23565 0.104732,-0.47129 0,-0.45166 -0.353468,-0.88367 l -2.029168,-2.48737 q -0.327285,-0.39929 -0.327285,-0.92949 0,-0.2291 0.06546,-0.44511 0.202916,-0.77239 0.88367,-1.05386 l 4.876548,-2.029164 v 1.217504 l -3.894693,1.63642 q -0.464745,0.19637 -0.602205,0.4582 -0.03927,0.072 -0.03927,0.23565 0,0.20946 0.202917,0.45165 l 1.800068,2.16008 q 0.667662,0.80512 0.667662,1.61025 0,0.73966 -0.405834,1.40078 -0.621841,1.01458 -2.081533,1.01458 z" />
      <path
         id="path1049"
         style="font-size:13.4056px"
         d="m 63.192085,107.94156 q 0,-0.49747 -0.104731,-0.87058 -0.157097,-0.52365 -0.4582,-0.72003 -0.392742,-0.26837 -0.785484,-0.0982 -0.438562,0.18982 -0.523656,0.55638 -0.111277,0.49093 0.307648,0.8444 0.307648,0.26183 1.564423,0.28801 z m 1.171681,0 h 1.610243 v 1.20441 h -1.269867 l -0.458199,-0.007 q -0.163643,1.02113 -1.008038,1.86553 -0.543294,0.54329 -1.230592,0.85094 -1.256775,0.56293 -3.645957,0.56293 v -1.20441 q 2.362999,0 3.227032,-0.49747 1.099678,-0.62184 1.505511,-1.59061 -0.772393,-0.0196 -1.066949,-0.0654 -0.909853,-0.1571 -1.243684,-0.43857 -0.693844,-0.58256 -0.759301,-1.46623 -0.01309,-0.20292 0.05237,-0.57603 0.176734,-1.01458 1.328778,-1.50551 0.386196,-0.16364 0.811667,-0.15709 0.569476,0.0131 1.02113,0.33383 0.870578,0.6022 1.014584,1.52515 0.08509,0.54329 0.111277,1.16513 z" />
      <path
         id="path1051"
         style="font-size:13.4056px"
         d="m 55.998356,108.66813 q 0.510565,-0.82475 0.510565,-2.31063 v -7.396644 h 1.20441 v 7.396644 q 0,2.07499 -0.641479,3.01757 -0.79203,1.15859 -2.500459,1.59061 -0.877124,0.22255 -1.433509,0.22255 -0.621842,0 -1.099678,-0.14401 -1.911345,-0.6022 -1.917891,-2.38918 -0.0065,-0.9033 0.412379,-1.50551 h 1.20441 q -0.425471,0.75276 -0.425471,1.50551 0,0.85094 1.086587,1.25678 0.261828,0.10473 0.739664,0.10473 0.523656,0 1.237138,-0.22256 1.138952,-0.34692 1.623334,-1.12586 z" />
    </g>
    <g
       style="font-style:normal;font-weight:normal;font-size:13.4056px;line-height:1.25;font-family:sans-serif;white-space:pre;shape-inside:url(#rect923);fill:#000000;fill-opacity:1;stroke:none"
       id="text921"
       transform="translate(-4.8108516,-3.2080626)"
       aria-label="وکړل">
      <path
         id="path1054"
         style="font-size:13.4056px"
         d="m 142.76607,113.67169 q -0.41238,0 -0.70039,0.3731 -0.1571,0.21601 -0.1571,0.45166 0,0.33383 0.33383,0.64147 0.30765,0.28802 1.56442,0.28802 0,-1.20441 -0.56293,-1.59061 -0.24219,-0.16364 -0.47783,-0.16364 z m 2.21244,1.75425 q 0,2.01607 -1.12586,3.06338 -0.62184,0.57603 -1.23059,0.85095 -1.25677,0.56293 -3.64595,0.56293 v -1.20441 q 2.3499,0 3.22703,-0.49748 1.09967,-0.62184 1.50551,-1.5906 -0.77239,0 -1.06695,-0.0655 -0.98186,-0.21601 -1.24368,-0.43856 -0.75931,-0.64148 -0.75931,-1.53824 0,-0.92295 0.58257,-1.49242 0.68075,-0.67421 1.57752,-0.67421 0.58256,0 1.05385,0.33383 0.85095,0.58911 1.01459,1.52515 0.11127,0.66766 0.11127,1.16514 z" />
      <path
         id="path1056"
         style="font-size:13.4056px"
         d="m 135.17305,116.63034 h -2.16008 v -1.2044 h 2.02917 q 0.96876,0 1.26332,-0.68076 0.10473,-0.23564 0.10473,-0.47129 0,-0.45165 -0.35347,-0.88367 l -2.02917,-2.48737 q -0.32728,-0.39928 -0.32728,-0.92948 0,-0.2291 0.0654,-0.44511 0.20292,-0.7724 0.88367,-1.05386 l 4.87655,-2.02917 v 1.2175 l -3.89469,1.63643 q -0.46475,0.19637 -0.6022,0.4582 -0.0393,0.072 -0.0393,0.23564 0,0.20946 0.20292,0.45166 l 1.80007,2.16008 q 0.66766,0.80512 0.66766,1.61024 0,0.73967 -0.40584,1.40078 -0.62184,1.01458 -2.08153,1.01458 z" />
      <path
         id="path1058"
         style="font-size:13.4056px"
         d="m 131.73001,118.46314 q 0,-0.26183 -0.18328,-0.44511 -0.18328,-0.18982 -0.45165,-0.18982 -0.26838,0 -0.45166,0.18328 -0.18328,0.18328 -0.18328,0.45165 0,0.27492 0.18328,0.4582 0.18328,0.17673 0.45166,0.17673 0.26837,0 0.45165,-0.18327 0.18328,-0.18328 0.18328,-0.45166 z m 0.3862,-1.02113 q 0.41238,0.41893 0.41238,1.02113 0,0.60221 -0.41238,1.02113 -0.41893,0.41893 -1.02113,0.41893 -0.60221,0 -1.01459,-0.41893 -0.41892,-0.41892 -0.41892,-1.02113 0,-0.6022 0.41892,-1.02113 0.41238,-0.41238 1.01459,-0.41238 0.6022,0 1.02113,0.41238 z m -2.24518,-4.4118 h 1.20441 q 0.19637,0.73312 0.21601,0.92949 0.0655,0.67421 0.54329,1.17822 0.27492,0.28802 0.93604,0.28802 h 0.49093 v 1.2044 h -0.85095 q -0.85094,0 -1.17822,-0.40583 -0.44511,1.81971 -2.08808,2.69029 -1.85898,0.9884 -3.9667,0.9884 v -1.20441 q 1.9899,0 3.31867,-0.83785 1.42697,-0.90331 1.65607,-2.26482 0.0654,-0.37965 0.0654,-0.85094 0,-0.82476 -0.34692,-1.71497 z" />
      <path
         id="path1060"
         style="font-size:13.4056px"
         d="m 122.81476,116.15251 q 0.51057,-0.82476 0.51057,-2.31063 v -7.39665 h 1.20441 v 7.39665 q 0,2.07498 -0.64148,3.01756 -0.79203,1.15859 -2.50046,1.59061 -0.87712,0.22255 -1.43351,0.22255 -0.62184,0 -1.09968,-0.144 -1.91134,-0.60221 -1.91789,-2.38918 -0.007,-0.90331 0.41238,-1.50551 h 1.20441 q -0.42547,0.75275 -0.42547,1.50551 0,0.85094 1.08659,1.25677 0.26182,0.10473 0.73966,0.10473 0.52366,0 1.23714,-0.22255 1.13895,-0.34692 1.62333,-1.12586 z" />
    </g>
    <path
       sodipodi:nodetypes="cc"
       id="path927"
       d="M 28.348215,24.568452 18.142857,36.285715"
       style="fill:none;stroke:#000000;stroke-width:0.865;stroke-linecap:butt;stroke-linejoin:miter;stroke-miterlimit:4;stroke-dasharray:none;stroke-opacity:1" />
    <path
       style="fill:none;stroke:#000000;stroke-width:0.865;stroke-linecap:butt;stroke-linejoin:miter;stroke-miterlimit:4;stroke-dasharray:none;stroke-opacity:1"
       d="M 45.924106,24.568452 56.129464,36.285715"
       id="path927-8"
       sodipodi:nodetypes="cc" />
    <path
       style="fill:none;stroke:#000000;stroke-width:0.865;stroke-linecap:butt;stroke-linejoin:miter;stroke-miterlimit:4;stroke-dasharray:none;stroke-opacity:1"
       d="M 165.0811,24.75744 154.87575,36.474704"
       id="path927-5"
       sodipodi:nodetypes="cc" />
    <path
       sodipodi:nodetypes="cc"
       id="path927-8-6"
       d="m 182.65699,24.75744 10.20536,11.717264"
       style="fill:none;stroke:#000000;stroke-width:0.865;stroke-linecap:butt;stroke-linejoin:miter;stroke-miterlimit:4;stroke-dasharray:none;stroke-opacity:1" />
    <path
       style="fill:none;stroke:#000000;stroke-width:0.865;stroke-linecap:butt;stroke-linejoin:miter;stroke-miterlimit:4;stroke-dasharray:none;stroke-opacity:1"
       d="M 96.66741,86.745535 86.462052,98.462799"
       id="path927-58"
       sodipodi:nodetypes="cc" />
    <path
       sodipodi:nodetypes="cc"
       id="path927-8-4"
       d="m 114.2433,86.745535 10.20536,11.717264"
       style="fill:none;stroke:#000000;stroke-width:0.865;stroke-linecap:butt;stroke-linejoin:miter;stroke-miterlimit:4;stroke-dasharray:none;stroke-opacity:1" />
  </g>
</svg>
