<?xml version="1.0" encoding="UTF-8" standalone="no"?>
<svg
   xmlns:dc="http://purl.org/dc/elements/1.1/"
   xmlns:cc="http://creativecommons.org/ns#"
   xmlns:rdf="http://www.w3.org/1999/02/22-rdf-syntax-ns#"
   xmlns:svg="http://www.w3.org/2000/svg"
   xmlns="http://www.w3.org/2000/svg"
   xmlns:sodipodi="http://sodipodi.sourceforge.net/DTD/sodipodi-0.dtd"
   xmlns:inkscape="http://www.inkscape.org/namespaces/inkscape"
   sodipodi:docname="dynamic-compound-intransitive.svg"
   inkscape:version="1.0 (4035a4fb49, 2020-05-01)"
   id="svg8"
   version="1.1"
   viewBox="0 0 78.673093 43.78212"
   height="165.47572"
   width="297.34714">
  <defs
     id="defs2">
    <rect
       id="rect977"
       height="47.573975"
       width="117.06405"
       y="111.02134"
       x="0.59185642" />
    <rect
       id="rect971"
       height="23.786987"
       width="37.685005"
       y="43.13488"
       x="94.136192" />
    <rect
       x="2.3806393"
       y="66.437157"
       width="28.145405"
       height="23.20262"
       id="rect5078" />
    <rect
       id="rect2967"
       height="20.045214"
       width="27.796032"
       y="69.861832"
       x="59.391151" />
    <rect
       id="rect2961"
       height="14.967094"
       width="25.123337"
       y="14.269771"
       x="70.349205" />
    <rect
       id="rect2180"
       height="12.294398"
       width="30.468725"
       y="17.477007"
       x="24.646114" />
    <rect
       id="rect2174"
       height="12.828937"
       width="37.685001"
       y="55.963818"
       x="58.322075" />
    <rect
       id="rect2168"
       height="20.312485"
       width="42.228584"
       y="57.300163"
       x="1.6609344" />
    <rect
       id="rect962"
       height="16.036173"
       width="39.823158"
       y="37.952274"
       x="-6.9490075" />
    <rect
       id="rect894"
       height="23.519718"
       width="37.417732"
       y="56.126602"
       x="11.759859" />
    <rect
       id="rect886"
       height="13.363476"
       width="47.841248"
       y="14.432554"
       x="75.102737" />
    <rect
       id="rect880"
       height="13.363476"
       width="34.210499"
       y="23.252449"
       x="35.279579" />
    <rect
       id="rect855"
       height="34.477768"
       width="88.733482"
       y="102.89877"
       x="59.868374" />
    <rect
       id="rect849"
       height="33.94323"
       width="92.475258"
       y="99.691536"
       x="52.652096" />
    <rect
       id="rect843"
       height="20.112129"
       width="67.822716"
       y="47.507061"
       x="52.715843" />
    <rect
       id="rect835"
       height="43.845238"
       width="92.98214"
       y="45.357143"
       x="47.625" />
    <rect
       x="75.102737"
       y="14.432554"
       width="54.312309"
       height="38.060673"
       id="rect886-3" />
    <rect
       x="75.102737"
       y="14.432554"
       width="47.841248"
       height="13.363476"
       id="rect925" />
  </defs>
  <sodipodi:namedview
     inkscape:snap-global="false"
     showguides="false"
     inkscape:window-maximized="0"
     inkscape:window-y="165"
     inkscape:window-x="2512"
     inkscape:window-height="1030"
     inkscape:window-width="1541"
     showgrid="false"
     inkscape:document-rotation="0"
     inkscape:current-layer="layer1"
     inkscape:document-units="mm"
     inkscape:cy="24.157692"
     inkscape:cx="165.53043"
     inkscape:zoom="0.98994949"
     inkscape:pageshadow="2"
     inkscape:pageopacity="0.0"
     borderopacity="1.0"
     bordercolor="#666666"
     pagecolor="#ffffff"
     id="base"
     units="px"
     lock-margins="true"
     fit-margin-top="10"
     fit-margin-left="10"
     fit-margin-right="10"
     fit-margin-bottom="10" />
  <metadata
     id="metadata5">
    <rdf:RDF>
      <cc:Work
         rdf:about="">
        <dc:format>image/svg+xml</dc:format>
        <dc:type
           rdf:resource="http://purl.org/dc/dcmitype/StillImage" />
        <dc:title></dc:title>
      </cc:Work>
    </rdf:RDF>
  </metadata>
  <g
     id="layer1"
     inkscape:groupmode="layer"
     inkscape:label="Layer 1"
     transform="translate(-49.68001,-44.471228)">
    <text
       style="font-style:normal;font-weight:normal;font-size:10.5833px;line-height:1.25;font-family:sans-serif;white-space:pre;shape-inside:url(#rect835);fill:#000000;fill-opacity:1;stroke:none;"
       id="text833"
       xml:space="preserve" />
    <path
       id="rect839"
       style="fill:#ffffff;stroke:#000000;stroke-width:0.78;stroke-miterlimit:4;stroke-dasharray:none"
       d="M 52.715843,47.507061 H 125.31727 V 85.217514 H 52.715843 Z" />
    <g
       style="font-style:normal;font-weight:normal;font-size:10.5833px;line-height:1.25;font-family:sans-serif;white-space:pre;shape-inside:url(#rect2180);fill:#000000;fill-opacity:1;stroke:none"
       id="text2178"
       transform="translate(61.471991,43.252482)"
       aria-label="+">
      <path
         id="path3000"
         d="m 29.514389,20.205069 v 2.878369 h 2.878368 v 0.878496 h -2.878368 v 2.878368 h -0.868162 v -2.878368 h -2.878368 v -0.878496 h 2.878368 v -2.878369 z" />
    </g>
    <g
       transform="translate(-0.26726953,1.3518888)"
       id="g2983">
      <g
         style="font-style:normal;font-weight:normal;font-size:10.5833px;line-height:1.25;font-family:sans-serif;white-space:pre;shape-inside:url(#rect971);fill:#000000;fill-opacity:1;stroke:none"
         id="text969"
         transform="translate(4.2763125,8.2853554)"
         aria-label="کېدل">
        <path
           id="path1001"
           d="m 112.19241,52.498505 h -1.70532 v -0.950843 h 1.60196 q 0.76481,0 0.99736,-0.537433 0.0827,-0.186035 0.0827,-0.372069 0,-0.356567 -0.27905,-0.69763 l -1.60197,-1.963698 q -0.25838,-0.315225 -0.25838,-0.733803 0,-0.180867 0.0517,-0.351399 0.16019,-0.60978 0.69763,-0.831988 l 3.84988,-1.601964 v 0.961179 l -3.07474,1.291906 q -0.3669,0.155029 -0.47542,0.361734 -0.031,0.05684 -0.031,0.186035 0,0.165364 0.1602,0.356566 l 1.4211,1.705317 q 0.5271,0.635618 0.5271,1.271236 0,0.583942 -0.3204,1.105872 -0.49092,0.800982 -1.6433,0.800982 z" />
        <path
           id="path1003"
           d="m 108.93163,52.054089 q -0.3979,0.444416 -1.18338,0.444416 h -0.46509 v -0.950843 h 0.18087 q 0.51159,0 0.73897,-0.227376 0.25321,-0.253213 0.25321,-0.800982 v -1.121375 h 0.95085 v 1.121375 q 0,0.547769 0.25321,0.800982 0.22738,0.227376 0.73897,0.227376 h 0.28422 v 0.950843 h -0.56844 q -0.77514,0 -1.18339,-0.444416 z m -0.38757,2.253086 h 0.77515 v 0.775144 h -0.77515 z m 0,-1.291907 h 0.77515 v 0.775144 h -0.77515 z" />
        <path
           id="path1005"
           d="m 104.64767,49.52712 q -0.29455,-0.630451 -1.23506,-1.421097 h 1.17305 q 0.50126,0.403074 0.925,1.111039 0.41858,0.692462 0.41858,1.297075 0,0.377236 0.42892,0.806149 0.22737,0.227376 0.73897,0.227376 h 0.38757 v 0.950843 h -0.67179 q -0.75964,0 -1.2609,-0.671791 -0.48059,0.661456 -1.55029,0.831988 -0.23771,0.03617 -0.47026,0.03617 -0.52709,0 -1.05936,-0.19637 v -0.950843 q 0.59428,0.21704 1.02836,0.21704 0.17053,0 0.34623,-0.04651 0.88883,-0.253214 1.0697,-0.831988 0.0413,-0.139526 0.0413,-0.356566 0,-0.351399 -0.31006,-1.00252 z" />
        <path
           id="path1007"
           d="m 99.521386,52.121269 q 0.403074,-0.651121 0.403074,-1.824173 v -5.839418 h 0.95084 v 5.839418 q 0,1.638138 -0.50642,2.382276 -0.625287,0.91467 -1.974037,1.255734 -0.692462,0.175699 -1.13171,0.175699 -0.490925,0 -0.868162,-0.113688 -1.508947,-0.475422 -1.514114,-1.886184 -0.0052,-0.713132 0.32556,-1.188554 h 0.950844 q -0.335896,0.594277 -0.335896,1.188554 0,0.671792 0.857826,0.992185 0.206705,0.08268 0.583942,0.08268 0.41341,0 0.976681,-0.1757 0.899167,-0.273884 1.281572,-0.888831 z" />
      </g>
      <g
         inkscape:transform-center-x="-1.0690782"
         style="font-style:normal;font-weight:normal;font-size:10.5833px;line-height:0.65;font-family:sans-serif;white-space:pre;shape-inside:url(#rect977);fill:#000000;fill-opacity:1;stroke:none"
         id="text975"
         transform="translate(51.583019,-47.306706)"
         aria-label="to
happen">
        <path
           id="path1010"
           style="font-size:6.35px;text-align:center;text-anchor:middle"
           d="m 57.099341,112.75159 v 0.98599 h 1.175122 v 0.44338 h -1.175122 v 1.88516 q 0,0.42478 0.114722,0.5457 0.117822,0.12092 0.474389,0.12092 h 0.586011 v 0.47749 h -0.586011 q -0.660425,0 -0.911572,-0.24494 -0.251148,-0.24805 -0.251148,-0.89917 v -1.88516 h -0.418579 v -0.44338 h 0.418579 v -0.98599 z" />
        <path
           id="path1012"
           style="font-size:6.35px;text-align:center;text-anchor:middle"
           d="m 60.37356,114.13755 q -0.458887,0 -0.725538,0.35967 -0.26665,0.35657 -0.26665,0.97979 0,0.62321 0.26355,0.98288 0.26665,0.35657 0.728638,0.35657 0.455786,0 0.722436,-0.35967 0.26665,-0.35967 0.26665,-0.97978 0,-0.61702 -0.26665,-0.97669 -0.26665,-0.36277 -0.722436,-0.36277 z m 0,-0.48369 q 0.74414,0 1.16892,0.48369 0.424781,0.48369 0.424781,1.33946 0,0.85266 -0.424781,1.33945 -0.42478,0.48369 -1.16892,0.48369 -0.747242,0 -1.172022,-0.48369 -0.42168,-0.48679 -0.42168,-1.33945 0,-0.85577 0.42168,-1.33946 0.42478,-0.48369 1.172022,-0.48369 z" />
        <path
           id="path1014"
           style="font-size:6.35px;text-align:center;text-anchor:middle"
           d="m 50.647022,121.99338 v 2.096 h -0.570508 v -2.0774 q 0,-0.49299 -0.192237,-0.73794 -0.192236,-0.24494 -0.576708,-0.24494 -0.461988,0 -0.728638,0.29455 -0.266651,0.29456 -0.266651,0.80306 v 1.96267 h -0.573608 v -4.82451 h 0.573608 v 1.89135 q 0.204639,-0.31316 0.480591,-0.46819 0.279053,-0.15503 0.641822,-0.15503 0.598413,0 0.905371,0.37208 0.306958,0.36896 0.306958,1.0883 z" />
        <path
           id="path1016"
           style="font-size:6.35px;text-align:center;text-anchor:middle"
           d="m 53.369336,122.34375 q -0.691431,0 -0.958081,0.15813 -0.26665,0.15813 -0.26665,0.5395 0,0.30386 0.198437,0.48369 0.201538,0.17673 0.545703,0.17673 0.47439,0 0.759644,-0.33486 0.288354,-0.33796 0.288354,-0.89607 v -0.12712 z m 1.137915,-0.23565 v 1.98128 h -0.570508 v -0.5271 q -0.195337,0.31626 -0.486792,0.46819 -0.291455,0.14882 -0.713134,0.14882 -0.533301,0 -0.849561,-0.29765 -0.313159,-0.30076 -0.313159,-0.80305 0,-0.58601 0.390674,-0.88367 0.393774,-0.29766 1.172021,-0.29766 h 0.799951 v -0.0558 q 0,-0.39377 -0.260449,-0.60771 -0.257349,-0.21704 -0.725537,-0.21704 -0.297656,0 -0.57981,0.0713 -0.282153,0.0713 -0.542602,0.21394 v -0.5271 q 0.313159,-0.12092 0.607715,-0.17983 0.294555,-0.062 0.573608,-0.062 0.753442,0 1.125513,0.39068 0.37207,0.39067 0.37207,1.18442 z" />
        <path
           id="path1018"
           style="font-size:6.35px;text-align:center;text-anchor:middle"
           d="m 56.237378,123.56848 v 1.84175 H 55.66377 v -4.79351 h 0.573608 v 0.5271 q 0.179834,-0.31006 0.452685,-0.45889 0.275953,-0.15193 0.657325,-0.15193 0.632519,0 1.026294,0.5023 0.396875,0.50229 0.396875,1.32085 0,0.81855 -0.396875,1.32085 -0.393775,0.50229 -1.026294,0.50229 -0.381372,0 -0.657325,-0.14882 -0.272851,-0.15193 -0.452685,-0.46199 z m 1.940967,-1.21233 q 0,-0.62942 -0.26045,-0.98599 -0.257348,-0.35966 -0.710034,-0.35966 -0.452685,0 -0.713134,0.35966 -0.257349,0.35657 -0.257349,0.98599 0,0.62942 0.257349,0.98909 0.260449,0.35656 0.713134,0.35656 0.452686,0 0.710034,-0.35656 0.26045,-0.35967 0.26045,-0.98909 z" />
        <path
           id="path1020"
           style="font-size:6.35px;text-align:center;text-anchor:middle"
           d="m 60.26814,123.56848 v 1.84175 h -0.573609 v -4.79351 h 0.573609 v 0.5271 q 0.179834,-0.31006 0.452685,-0.45889 0.275952,-0.15193 0.657324,-0.15193 0.63252,0 1.026294,0.5023 0.396875,0.50229 0.396875,1.32085 0,0.81855 -0.396875,1.32085 -0.393774,0.50229 -1.026294,0.50229 -0.381372,0 -0.657324,-0.14882 -0.272851,-0.15193 -0.452685,-0.46199 z m 1.940966,-1.21233 q 0,-0.62942 -0.260449,-0.98599 -0.257348,-0.35966 -0.710034,-0.35966 -0.452686,0 -0.713135,0.35966 -0.257348,0.35657 -0.257348,0.98599 0,0.62942 0.257348,0.98909 0.260449,0.35656 0.713135,0.35656 0.452686,0 0.710034,-0.35656 0.260449,-0.35967 0.260449,-0.98909 z" />
        <path
           id="path1022"
           style="font-size:6.35px;text-align:center;text-anchor:middle"
           d="m 66.717358,122.21042 v 0.27905 h -2.623095 q 0.03721,0.58912 0.353466,0.89917 0.319361,0.30696 0.886768,0.30696 0.328662,0 0.63562,-0.0806 0.310059,-0.0806 0.613916,-0.24185 v 0.5395 q -0.306958,0.13023 -0.629419,0.19844 -0.322461,0.0682 -0.654223,0.0682 -0.830957,0 -1.317749,-0.48369 -0.483692,-0.48369 -0.483692,-1.30844 0,-0.85267 0.458887,-1.35186 0.461987,-0.5023 1.243335,-0.5023 0.700732,0 1.106909,0.45269 0.409277,0.44959 0.409277,1.22473 z m -0.570507,-0.16743 q -0.0062,-0.46819 -0.26355,-0.74724 -0.254248,-0.27905 -0.675928,-0.27905 -0.47749,0 -0.765845,0.26975 -0.285254,0.26975 -0.328662,0.75964 z" />
        <path
           id="path1024"
           style="font-size:6.35px;text-align:center;text-anchor:middle"
           d="m 70.540382,121.99338 v 2.096 h -0.570508 v -2.0774 q 0,-0.49299 -0.192236,-0.73794 -0.192237,-0.24494 -0.576709,-0.24494 -0.461988,0 -0.728638,0.29455 -0.26665,0.29456 -0.26665,0.80306 v 1.96267 h -0.573609 v -3.47266 h 0.573609 v 0.5395 q 0.204638,-0.31316 0.48059,-0.46819 0.279053,-0.15503 0.641822,-0.15503 0.598413,0 0.905371,0.37208 0.306958,0.36896 0.306958,1.0883 z" />
      </g>
    </g>
    <g
       transform="translate(0,0.87984573)"
       id="g1048">
      <g
         aria-label="Subject"
         transform="matrix(0.74399477,0,0,0.74399477,53.91504,10.288093)"
         id="text2166"
         style="font-style:normal;font-weight:normal;font-size:10.5833px;line-height:1.25;font-family:sans-serif;white-space:pre;shape-inside:url(#rect2168);fill:#000000;fill-opacity:1;stroke:none">
        <path
           d="M 7.3238752,59.202468 V 60.22049 Q 6.7295981,59.936271 6.2025002,59.796745 5.6754023,59.657219 5.1844777,59.657219 q -0.8526584,0 -1.3177448,0.330728 -0.4599188,0.330728 -0.4599188,0.940508 0,0.511595 0.30489,0.775144 0.3100576,0.258382 1.1678836,0.418578 l 0.6304505,0.129191 q 1.1678836,0.222208 1.7208197,0.785479 0.5581037,0.558104 0.5581037,1.498612 0,1.121375 -0.7544735,1.700149 -0.7493059,0.578774 -2.201409,0.578774 -0.5477684,0 -1.1678837,-0.124023 -0.6149475,-0.124023 -1.2764038,-0.366901 v -1.074867 q 0.6356181,0.356566 1.2453981,0.537433 0.6097799,0.180867 1.1988894,0.180867 0.8939994,0 1.3797563,-0.351398 0.485757,-0.351399 0.485757,-1.00252 0,-0.568439 -0.3513987,-0.888832 -0.346231,-0.320393 -1.1420455,-0.480589 L 4.5695301,63.119529 Q 3.4016465,62.886986 2.8797162,62.390894 2.3577859,61.894801 2.3577859,61.011137 q 0,-1.02319 0.7183001,-1.612299 0.7234677,-0.58911 1.9895363,-0.58911 0.5426008,0 1.1058721,0.09819 0.5632713,0.09819 1.1523808,0.294555 z"
           id="path2985" />
        <path
           d="m 9.2772379,64.38043 v -3.503651 h 0.9508431 v 3.467478 q 0,0.821652 0.320393,1.235062 0.320393,0.408243 0.961179,0.408243 0.769976,0 1.214392,-0.490925 0.449583,-0.490924 0.449583,-1.338415 v -3.281443 h 0.950844 v 5.787742 h -0.950844 v -0.888832 q -0.346231,0.527098 -0.806149,0.785479 -0.454751,0.253214 -1.059364,0.253214 -0.997352,0 -1.5141144,-0.620115 Q 9.2772379,65.574152 9.2772379,64.38043 Z m 2.3926111,-3.643177 z"
           id="path2987" />
        <path
           d="m 20.248109,63.775818 q 0,-1.049029 -0.43408,-1.643306 -0.428913,-0.599444 -1.183387,-0.599444 -0.754473,0 -1.188554,0.599444 -0.428913,0.594277 -0.428913,1.643306 0,1.049028 0.428913,1.648473 0.434081,0.594277 1.188554,0.594277 0.754474,0 1.183387,-0.594277 0.43408,-0.599445 0.43408,-1.648473 z m -3.234934,-2.020542 q 0.299722,-0.516763 0.754473,-0.764809 0.459919,-0.253214 1.095537,-0.253214 1.054196,0 1.710485,0.837156 0.661456,0.837155 0.661456,2.201409 0,1.364253 -0.661456,2.201409 -0.656289,0.837155 -1.710485,0.837155 -0.635618,0 -1.095537,-0.248046 -0.454751,-0.253214 -0.754473,-0.769976 v 0.868161 h -0.956011 v -8.040827 h 0.956011 z"
           id="path2989" />
        <path
           d="m 22.811252,60.876779 h 0.950843 v 5.891095 q 0,1.105872 -0.423745,1.601964 -0.418578,0.496092 -1.353918,0.496092 h -0.361734 v -0.80615 h 0.253214 q 0.5426,0 0.73897,-0.253214 0.19637,-0.248046 0.19637,-1.038692 z m 0,-2.253085 h 0.950843 v 1.204057 h -0.950843 z"
           id="path2991" />
        <path
           d="m 30.69705,63.532939 v 0.465087 h -4.371813 q 0.06201,0.981849 0.58911,1.498611 0.532265,0.511595 1.477941,0.511595 0.547768,0 1.059364,-0.134358 0.516762,-0.134358 1.02319,-0.403075 v 0.899167 q -0.511595,0.217041 -1.049029,0.330728 -0.537433,0.113688 -1.090369,0.113688 -1.384924,0 -2.196241,-0.80615 -0.80615,-0.806149 -0.80615,-2.180738 0,-1.421097 0.764809,-2.253085 0.769976,-0.837156 2.072218,-0.837156 1.167884,0 1.844843,0.754474 0.682127,0.749305 0.682127,2.041212 z m -0.950844,-0.279052 q -0.01034,-0.780311 -0.439248,-1.245398 -0.423745,-0.465086 -1.126543,-0.465086 -0.795814,0 -1.276403,0.449583 -0.475422,0.449584 -0.547769,1.266069 z"
           id="path2993" />
        <path
           d="m 36.422782,61.098987 v 0.888832 q -0.403075,-0.222208 -0.811318,-0.330728 -0.403075,-0.113688 -0.816485,-0.113688 -0.925005,0 -1.4366,0.589109 -0.511595,0.583942 -0.511595,1.643306 0,1.059363 0.511595,1.648473 0.511595,0.583941 1.4366,0.583941 0.41341,0 0.816485,-0.10852 0.408243,-0.113688 0.811318,-0.335896 v 0.878497 q -0.397908,0.186035 -0.826821,0.279052 -0.423745,0.09302 -0.904334,0.09302 -1.30741,0 -2.077386,-0.821653 -0.769977,-0.821652 -0.769977,-2.216911 0,-1.41593 0.775144,-2.227248 0.780312,-0.811317 2.13423,-0.811317 0.439249,0 0.857826,0.09302 0.418578,0.08785 0.811318,0.268717 z"
           id="path2995" />
        <path
           d="m 39.027265,59.233474 v 1.643305 h 1.958531 v 0.738971 h -1.958531 v 3.141917 q 0,0.707965 0.191202,0.909502 0.19637,0.201537 0.790647,0.201537 h 0.976682 v 0.795815 h -0.976682 q -1.100704,0 -1.519282,-0.408243 -0.418578,-0.41341 -0.418578,-1.498611 V 61.61575 h -0.697629 v -0.738971 h 0.697629 v -1.643305 z"
           id="path2997" />
      </g>
      <g
         style="font-style:normal;font-weight:normal;font-size:10.5833px;line-height:0;font-family:sans-serif;white-space:pre;shape-inside:url(#rect2967);fill:#000000;fill-opacity:1;stroke:none"
         id="text2965"
         transform="translate(-3.4745038,-5.8986082)"
         aria-label="noun activity">
        <path
           id="path3025"
           style="font-size:6.35px;line-height:1.15;text-align:center;text-anchor:middle;fill:#666666"
           d="m 68.787012,73.066094 v 2.095996 h -0.570508 v -2.077393 q 0,-0.492993 -0.192236,-0.737939 -0.192237,-0.244947 -0.576709,-0.244947 -0.461988,0 -0.728638,0.294556 -0.26665,0.294556 -0.26665,0.803052 v 1.962671 h -0.573609 v -3.472657 h 0.573609 v 0.539502 q 0.204638,-0.313159 0.48059,-0.468188 0.279053,-0.155029 0.641822,-0.155029 0.598413,0 0.905371,0.37207 0.306958,0.36897 0.306958,1.088306 z" />
        <path
           id="path3027"
           style="font-size:6.35px;line-height:1.15;text-align:center;text-anchor:middle;fill:#666666"
           d="m 71.276782,72.089409 q -0.458886,0 -0.725537,0.359668 -0.26665,0.356567 -0.26665,0.979785 0,0.623218 0.26355,0.982886 0.26665,0.356567 0.728637,0.356567 0.455786,0 0.722437,-0.359668 0.26665,-0.359668 0.26665,-0.979785 0,-0.617016 -0.26665,-0.976684 -0.266651,-0.362769 -0.722437,-0.362769 z m 0,-0.483691 q 0.744141,0 1.168921,0.483691 0.42478,0.483691 0.42478,1.339453 0,0.852661 -0.42478,1.339453 -0.42478,0.483692 -1.168921,0.483692 -0.747241,0 -1.172021,-0.483692 -0.42168,-0.486792 -0.42168,-1.339453 0,-0.855762 0.42168,-1.339453 0.42478,-0.483691 1.172021,-0.483691 z" />
        <path
           id="path3029"
           style="font-size:6.35px;line-height:1.15;text-align:center;text-anchor:middle;fill:#666666"
           d="m 73.75415,73.791631 v -2.102198 h 0.570508 v 2.080494 q 0,0.492993 0.192236,0.74104 0.192237,0.244946 0.576709,0.244946 0.461988,0 0.728638,-0.294556 0.269751,-0.294555 0.269751,-0.803051 V 71.689433 H 76.6625 v 3.472657 h -0.570508 v -0.533301 q -0.207739,0.31626 -0.483692,0.471289 -0.272851,0.151929 -0.63562,0.151929 -0.598413,0 -0.908471,-0.372071 -0.310059,-0.37207 -0.310059,-1.088305 z m 1.435571,-2.185913 z" />
        <path
           id="path3031"
           style="font-size:6.35px;line-height:1.15;text-align:center;text-anchor:middle;fill:#666666"
           d="m 80.730468,73.066094 v 2.095996 h -0.570507 v -2.077393 q 0,-0.492993 -0.192237,-0.737939 -0.192236,-0.244947 -0.576709,-0.244947 -0.461987,0 -0.728637,0.294556 -0.266651,0.294556 -0.266651,0.803052 v 1.962671 h -0.573608 v -3.472657 h 0.573608 v 0.539502 q 0.204639,-0.313159 0.480591,-0.468188 0.279053,-0.155029 0.641821,-0.155029 0.598413,0 0.905371,0.37207 0.306958,0.36897 0.306958,1.088306 z" />
        <path
           id="path3033"
           style="font-size:6.35px;line-height:1.15;text-align:center;text-anchor:middle;fill:#666666"
           d="m 63.757861,80.718958 q -0.69143,0 -0.958081,0.15813 -0.26665,0.158129 -0.26665,0.539502 0,0.303857 0.198438,0.483691 0.201538,0.176733 0.545703,0.176733 0.474389,0 0.759643,-0.334863 0.288355,-0.337964 0.288355,-0.896069 v -0.127124 z m 1.137915,-0.235645 v 1.981275 h -0.570507 v -0.5271 q -0.195337,0.31626 -0.486792,0.468188 -0.291455,0.148829 -0.713135,0.148829 -0.533301,0 -0.849561,-0.297657 -0.313159,-0.300757 -0.313159,-0.803051 0,-0.586011 0.390674,-0.883667 0.393774,-0.297657 1.172022,-0.297657 h 0.799951 v -0.05581 q 0,-0.393775 -0.26045,-0.607715 -0.257348,-0.217041 -0.725537,-0.217041 -0.297656,0 -0.579809,0.07131 -0.282154,0.07131 -0.542603,0.213941 v -0.5271 q 0.313159,-0.120923 0.607715,-0.179834 0.294556,-0.06201 0.573609,-0.06201 0.753442,0 1.125512,0.390673 0.37207,0.390674 0.37207,1.184424 z" />
        <path
           id="path3035"
           style="font-size:6.35px;line-height:1.15;text-align:center;text-anchor:middle;fill:#666666"
           d="m 68.573071,79.125257 v 0.5333 q -0.241845,-0.133325 -0.486792,-0.198437 -0.241845,-0.06821 -0.489892,-0.06821 -0.555005,0 -0.861963,0.353467 -0.306958,0.350366 -0.306958,0.985986 0,0.63562 0.306958,0.989087 0.306958,0.350366 0.861963,0.350366 0.248047,0 0.489892,-0.06511 0.244947,-0.06821 0.486792,-0.201538 v 0.527099 q -0.238745,0.111621 -0.496093,0.167432 -0.254248,0.05581 -0.542603,0.05581 -0.784448,0 -1.246435,-0.492994 -0.461988,-0.492993 -0.461988,-1.330151 0,-0.84956 0.465088,-1.336352 0.468189,-0.486792 1.280542,-0.486792 0.26355,0 0.514697,0.05581 0.251148,0.05271 0.486792,0.161231 z" />
        <path
           id="path3037"
           style="font-size:6.35px;line-height:1.15;text-align:center;text-anchor:middle;fill:#666666"
           d="m 70.135767,78.005945 v 0.985986 h 1.175122 v 0.443384 h -1.175122 v 1.885156 q 0,0.424781 0.114722,0.545703 0.117822,0.120923 0.474389,0.120923 h 0.586011 v 0.477491 h -0.586011 q -0.660425,0 -0.911572,-0.244947 -0.251147,-0.248047 -0.251147,-0.89917 v -1.885156 h -0.41858 v -0.443384 h 0.41858 v -0.985986 z" />
        <path
           id="path3039"
           style="font-size:6.35px;line-height:1.15;text-align:center;text-anchor:middle;fill:#666666"
           d="m 72.064332,78.991931 h 0.570507 v 3.472657 h -0.570507 z m 0,-1.351855 h 0.570507 v 0.722436 h -0.570507 z" />
        <path
           id="path3041"
           style="font-size:6.35px;line-height:1.15;text-align:center;text-anchor:middle;fill:#666666"
           d="m 73.416187,78.991931 h 0.604614 l 1.085205,2.914551 1.085205,-2.914551 h 0.604614 l -1.302246,3.472657 h -0.775146 z" />
        <path
           id="path3043"
           style="font-size:6.35px;line-height:1.15;text-align:center;text-anchor:middle;fill:#666666"
           d="m 77.583374,78.991931 h 0.570507 v 3.472657 h -0.570507 z m 0,-1.351855 h 0.570507 v 0.722436 h -0.570507 z" />
        <path
           id="path3045"
           style="font-size:6.35px;line-height:1.15;text-align:center;text-anchor:middle;fill:#666666"
           d="m 79.908814,78.005945 v 0.985986 h 1.175122 v 0.443384 h -1.175122 v 1.885156 q 0,0.424781 0.114722,0.545703 0.117822,0.120923 0.47439,0.120923 h 0.58601 v 0.477491 h -0.58601 q -0.660425,0 -0.911573,-0.244947 -0.251147,-0.248047 -0.251147,-0.89917 v -1.885156 h -0.418579 v -0.443384 h 0.418579 v -0.985986 z" />
        <path
           id="path3047"
           style="font-size:6.35px;line-height:1.15;text-align:center;text-anchor:middle;fill:#666666"
           d="m 83.282251,82.787048 q -0.241846,0.620118 -0.471289,0.809253 -0.229443,0.189136 -0.613916,0.189136 H 81.74126 v -0.47749 h 0.334863 q 0.235645,0 0.365869,-0.111621 0.130225,-0.111621 0.288355,-0.5271 l 0.102319,-0.260449 -1.404565,-3.416846 h 0.604614 l 1.085205,2.716114 1.085205,-2.716114 h 0.604614 z" />
      </g>
    </g>
    <text
       xml:space="preserve"
       id="text5076"
       style="font-style:normal;font-weight:normal;font-size:10.5833px;line-height:1.25;font-family:sans-serif;white-space:pre;shape-inside:url(#rect5078);fill:#000000;fill-opacity:1;stroke:none;" />
  </g>
</svg>
